# xmcd
#
# Track frame offsets: 
#        150
#        18294
#        36057
#        53526
#        68496
#        84377
#        97436
#        118998
#        135492
#        152515
#        169275
#
# Disc length: 2483 seconds
#
# Revision: 0
# Processed by: cddbd v1.5.2PL0 Copyright (c) Steve Scherf et al.
# Submitted via: ExactAudioCopyFreeDBPlugin 1.0
#
DISCID=8809b10b
DTITLE=Cisco - Matrimoni e Funerali
DYEAR=2015
DGENRE=Alternative
TTITLE0=Come Agnelli in Mezzo ai Lupi
TTITLE1=Sangue Sudore e Merda
TTITLE2=Chiagne e Fotte
TTITLE3=Cisco - Coro delle Mondine di Novi - Il Girarrosto
TTITLE4=Cisco - Pierpaolo Capovilla - Supermarket
TTITLE5=Marasma
TTITLE6=Cisco - Angela Baraldi - Matrimoni e Funerali
TTITLE7=Per Te Soltanto
TTITLE8=Piedi Stanchi
TTITLE9=Cisco - Piotta - Il Tuo Altare
TTITLE10=Cisco - Massimo Zamboni - Cenere alla Cenere
EXTD=
EXTT0=
EXTT1=
EXTT2=
EXTT3=
EXTT4=
EXTT5=
EXTT6=
EXTT7=
EXTT8=
EXTT9=
EXTT10=
PLAYORDER=
